<svg xmlns="http://www.w3.org/2000/svg" xmlns:xlink="http://www.w3.org/1999/xlink" width="1920" zoomAndPan="magnify" viewBox="0 0 1440 809.999993" height="1080" preserveAspectRatio="xMidYMid meet" version="1.0"><defs><g/></defs><rect x="-144" width="1728" fill="#ffffff" y="-80.999999" height="971.999992" fill-opacity="1"/><rect x="-144" width="1728" fill="#000c2e" y="-80.999999" height="971.999992" fill-opacity="1"/><g fill="#ffffff" fill-opacity="1"><g transform="translate(41.110288, 428.449992)"><g><path d="M 48.539062 0 L 89.023438 0 L 89.023438 -103.324219 L 131.925781 -103.324219 L 131.925781 -140.988281 L 5.640625 -140.988281 L 5.640625 -103.324219 L 48.539062 -103.324219 Z M 48.539062 0 "/></g></g></g><g fill="#ffffff" fill-opacity="1"><g transform="translate(167.186494, 428.449992)"><g><path d="M 75.53125 3.019531 C 113.597656 3.019531 137.160156 -20.140625 137.160156 -58.007812 L 137.160156 -140.988281 L 96.675781 -140.988281 L 96.675781 -60.625 C 96.675781 -43.90625 89.628906 -35.046875 75.53125 -35.046875 C 61.429688 -35.046875 54.382812 -43.90625 54.382812 -60.625 L 54.382812 -140.988281 L 13.695312 -140.988281 L 13.695312 -58.007812 C 13.695312 -20.140625 37.460938 3.019531 75.53125 3.019531 Z M 75.53125 3.019531 "/></g></g></g><g fill="#ffffff" fill-opacity="1"><g transform="translate(306.756589, 428.449992)"><g><path d="M 14.90625 0 L 55.589844 0 L 55.589844 -40.082031 L 70.898438 -40.082031 L 91.039062 0 L 137.160156 0 L 111.179688 -47.53125 C 126.082031 -55.792969 134.542969 -70.695312 134.542969 -90.433594 C 134.542969 -121.652344 113.394531 -140.988281 79.15625 -140.988281 L 14.90625 -140.988281 Z M 54.785156 -72.507812 L 54.785156 -107.753906 L 73.714844 -107.753906 C 86.605469 -107.753906 93.65625 -101.511719 93.65625 -90.234375 C 93.65625 -78.953125 86.605469 -72.507812 73.714844 -72.507812 Z M 54.785156 -72.507812 "/></g></g></g><g fill="#ffffff" fill-opacity="1"><g transform="translate(440.28463, 428.449992)"><g><path d="M 14.90625 0 L 55.1875 0 L 55.1875 -71.902344 L 108.761719 0 L 141.792969 0 L 141.792969 -140.988281 L 101.714844 -140.988281 L 101.714844 -69.488281 L 48.136719 -140.988281 L 14.90625 -140.988281 Z M 14.90625 0 "/></g></g></g><g fill="#ffffff" fill-opacity="1"><g transform="translate(585.695359, 428.449992)"><g><path d="M 14.90625 0 L 55.589844 0 L 55.589844 -140.988281 L 14.90625 -140.988281 Z M 14.90625 0 "/></g></g></g><g fill="#ffffff" fill-opacity="1"><g transform="translate(644.704847, 428.449992)"><g><path d="M 14.90625 0 L 55.1875 0 L 55.1875 -71.902344 L 108.761719 0 L 141.792969 0 L 141.792969 -140.988281 L 101.714844 -140.988281 L 101.714844 -69.488281 L 48.136719 -140.988281 L 14.90625 -140.988281 Z M 14.90625 0 "/></g></g></g><g fill="#ffffff" fill-opacity="1"><g transform="translate(790.115619, 428.449992)"><g><path d="M 82.175781 3.019531 C 130.714844 3.019531 161.128906 -32.226562 156.699219 -81.773438 L 75.125 -81.773438 L 75.125 -53.171875 L 114 -53.171875 C 109.972656 -41.289062 98.691406 -33.234375 82.578125 -33.234375 C 60.019531 -33.234375 46.929688 -49.144531 46.929688 -70.496094 C 46.929688 -92.648438 61.230469 -107.753906 82.175781 -107.753906 C 94.664062 -107.753906 105.339844 -102.316406 110.777344 -93.457031 L 154.078125 -93.457031 C 145.820312 -124.269531 117.222656 -144.007812 81.570312 -144.007812 C 37.261719 -144.007812 6.847656 -113.796875 6.847656 -70.496094 C 6.847656 -26.988281 37.460938 3.019531 82.175781 3.019531 Z M 82.175781 3.019531 "/></g></g></g><g fill="#ff5757" fill-opacity="1"><g transform="translate(972.402149, 432.42321)"><g><path d="M 15.042969 0 L 56.101562 0 L 56.101562 -40.449219 L 71.550781 -40.449219 L 91.878906 0 L 138.425781 0 L 112.203125 -47.972656 C 127.246094 -56.304688 135.785156 -71.347656 135.785156 -91.269531 C 135.785156 -122.773438 114.441406 -142.289062 79.882812 -142.289062 L 15.042969 -142.289062 Z M 55.289062 -73.175781 L 55.289062 -108.75 L 74.394531 -108.75 C 87.40625 -108.75 94.519531 -102.449219 94.519531 -91.066406 C 94.519531 -79.679688 87.40625 -73.175781 74.394531 -73.175781 Z M 55.289062 -73.175781 "/></g></g></g><g fill="#ff5757" fill-opacity="1"><g transform="translate(1115.296578, 432.42321)"><g><path d="M 15.042969 0 L 114.847656 0 L 114.847656 -33.539062 L 55.695312 -33.539062 L 55.695312 -55.492188 L 107.121094 -55.492188 L 107.121094 -88.421875 L 55.695312 -88.421875 L 55.695312 -109.15625 L 112.609375 -109.15625 L 112.609375 -142.289062 L 15.042969 -142.289062 Z M 15.042969 0 "/></g></g></g><g fill="#ff5757" fill-opacity="1"><g transform="translate(1235.831982, 432.42321)"><g><path d="M 15.042969 0 L 75.414062 0 C 121.351562 0 151.84375 -28.253906 151.84375 -71.144531 C 151.84375 -113.832031 121.351562 -142.289062 75.414062 -142.289062 L 15.042969 -142.289062 Z M 56.101562 -36.792969 L 56.101562 -105.496094 L 74.191406 -105.496094 C 95.941406 -105.496094 109.96875 -92.082031 109.96875 -71.144531 C 109.96875 -50.207031 95.941406 -36.792969 74.191406 -36.792969 Z M 56.101562 -36.792969 "/></g></g></g><g fill="#ffffff" fill-opacity="1"><g transform="translate(225.689471, 554.429748)"><g><path d="M 34.171875 -41.203125 L 33.40625 -37.015625 L 22.171875 -37.015625 L 15.671875 0 L 10.28125 0 L 16.796875 -37.015625 L 5.5625 -37.015625 L 6.328125 -41.203125 Z M 34.171875 -41.203125 "/></g></g></g><g fill="#ffffff" fill-opacity="1"><g transform="translate(257.673919, 554.429748)"><g><path d="M 23.46875 -32.984375 C 26.707031 -32.984375 29.3125 -32.085938 31.28125 -30.296875 C 33.25 -28.503906 34.234375 -25.914062 34.234375 -22.53125 C 34.234375 -21.269531 34.132812 -20.125 33.9375 -19.09375 L 30.5625 0 L 25.25 0 L 28.5 -18.328125 C 28.65625 -19.160156 28.734375 -20.03125 28.734375 -20.9375 C 28.734375 -23.332031 28.070312 -25.160156 26.75 -26.421875 C 25.425781 -27.691406 23.582031 -28.328125 21.21875 -28.328125 C 18.382812 -28.328125 15.972656 -27.4375 13.984375 -25.65625 C 11.992188 -23.882812 10.703125 -21.304688 10.109375 -17.921875 L 10.109375 -18.03125 L 6.921875 0 L 1.53125 0 L 9.28125 -43.75 L 14.65625 -43.75 L 11.828125 -27.734375 C 13.160156 -29.390625 14.863281 -30.675781 16.9375 -31.59375 C 19.007812 -32.519531 21.1875 -32.984375 23.46875 -32.984375 Z M 23.46875 -32.984375 "/></g></g></g><g fill="#ffffff" fill-opacity="1"><g transform="translate(295.511343, 554.429748)"><g><path d="M 21.34375 -32.9375 C 24.0625 -32.9375 26.414062 -32.410156 28.40625 -31.359375 C 30.394531 -30.316406 31.910156 -28.859375 32.953125 -26.984375 C 34.003906 -25.117188 34.53125 -22.984375 34.53125 -20.578125 C 34.53125 -19.742188 34.429688 -18.738281 34.234375 -17.5625 C 34.078125 -16.53125 33.820312 -15.46875 33.46875 -14.375 L 7.5625 -14.375 C 7.488281 -13.582031 7.453125 -13.007812 7.453125 -12.65625 C 7.453125 -9.9375 8.269531 -7.816406 9.90625 -6.296875 C 11.539062 -4.773438 13.675781 -4.015625 16.3125 -4.015625 C 18.644531 -4.015625 20.6875 -4.554688 22.4375 -5.640625 C 24.1875 -6.722656 25.515625 -8.171875 26.421875 -9.984375 L 32.21875 -9.984375 C 30.800781 -6.878906 28.625 -4.347656 25.6875 -2.390625 C 22.75 -0.441406 19.347656 0.53125 15.484375 0.53125 C 11.429688 0.53125 8.171875 -0.640625 5.703125 -2.984375 C 3.242188 -5.328125 2.015625 -8.53125 2.015625 -12.59375 C 2.015625 -13.738281 2.128906 -14.960938 2.359375 -16.265625 C 2.953125 -19.609375 4.15625 -22.539062 5.96875 -25.0625 C 7.78125 -27.59375 10.015625 -29.535156 12.671875 -30.890625 C 15.335938 -32.253906 18.226562 -32.9375 21.34375 -32.9375 Z M 28.796875 -18.265625 C 28.910156 -19.054688 28.96875 -19.785156 28.96875 -20.453125 C 28.96875 -22.972656 28.171875 -24.921875 26.578125 -26.296875 C 24.984375 -27.679688 22.90625 -28.375 20.34375 -28.375 C 17.582031 -28.375 15.078125 -27.476562 12.828125 -25.6875 C 10.578125 -23.894531 9.0625 -21.421875 8.28125 -18.265625 Z M 28.796875 -18.265625 "/></g></g></g><g fill="#ffffff" fill-opacity="1"><g transform="translate(332.166353, 554.429748)"><g/></g></g><g fill="#ffffff" fill-opacity="1"><g transform="translate(349.784411, 554.429748)"><g><path d="M 33.9375 0 L 28.5625 0 L 12.765625 -32.8125 L 6.921875 0 L 1.53125 0 L 8.875 -41.265625 L 14.25 -41.265625 L 30.09375 -8.515625 L 35.890625 -41.265625 L 41.265625 -41.265625 Z M 33.9375 0 "/></g></g></g><g fill="#ffffff" fill-opacity="1"><g transform="translate(391.346445, 554.429748)"><g><path d="M 21.34375 -32.9375 C 24.0625 -32.9375 26.414062 -32.410156 28.40625 -31.359375 C 30.394531 -30.316406 31.910156 -28.859375 32.953125 -26.984375 C 34.003906 -25.117188 34.53125 -22.984375 34.53125 -20.578125 C 34.53125 -19.742188 34.429688 -18.738281 34.234375 -17.5625 C 34.078125 -16.53125 33.820312 -15.46875 33.46875 -14.375 L 7.5625 -14.375 C 7.488281 -13.582031 7.453125 -13.007812 7.453125 -12.65625 C 7.453125 -9.9375 8.269531 -7.816406 9.90625 -6.296875 C 11.539062 -4.773438 13.675781 -4.015625 16.3125 -4.015625 C 18.644531 -4.015625 20.6875 -4.554688 22.4375 -5.640625 C 24.1875 -6.722656 25.515625 -8.171875 26.421875 -9.984375 L 32.21875 -9.984375 C 30.800781 -6.878906 28.625 -4.347656 25.6875 -2.390625 C 22.75 -0.441406 19.347656 0.53125 15.484375 0.53125 C 11.429688 0.53125 8.171875 -0.640625 5.703125 -2.984375 C 3.242188 -5.328125 2.015625 -8.53125 2.015625 -12.59375 C 2.015625 -13.738281 2.128906 -14.960938 2.359375 -16.265625 C 2.953125 -19.609375 4.15625 -22.539062 5.96875 -25.0625 C 7.78125 -27.59375 10.015625 -29.535156 12.671875 -30.890625 C 15.335938 -32.253906 18.226562 -32.9375 21.34375 -32.9375 Z M 28.796875 -18.265625 C 28.910156 -19.054688 28.96875 -19.785156 28.96875 -20.453125 C 28.96875 -22.972656 28.171875 -24.921875 26.578125 -26.296875 C 24.984375 -27.679688 22.90625 -28.375 20.34375 -28.375 C 17.582031 -28.375 15.078125 -27.476562 12.828125 -25.6875 C 10.578125 -23.894531 9.0625 -21.421875 8.28125 -18.265625 Z M 28.796875 -18.265625 "/></g></g></g><g fill="#ffffff" fill-opacity="1"><g transform="translate(428.001455, 554.429748)"><g><path d="M 16.96875 -16.375 L 24.53125 0 L 18.453125 0 L 12.890625 -12.0625 L 3.375 0 L -2.3125 0 L 11.0625 -16.078125 L 3.484375 -32.40625 L 9.578125 -32.40625 L 15.078125 -20.453125 L 24.53125 -32.40625 L 30.21875 -32.40625 Z M 16.96875 -16.375 "/></g></g></g><g fill="#ffffff" fill-opacity="1"><g transform="translate(456.320403, 554.429748)"><g><path d="M 9.703125 -8.875 C 9.578125 -8.28125 9.515625 -7.765625 9.515625 -7.328125 C 9.515625 -6.347656 9.820312 -5.640625 10.4375 -5.203125 C 11.050781 -4.765625 12.046875 -4.546875 13.421875 -4.546875 L 17.375 -4.546875 L 16.5625 0 L 11.703125 0 C 9.140625 0 7.21875 -0.488281 5.9375 -1.46875 C 4.65625 -2.457031 4.015625 -4.078125 4.015625 -6.328125 C 4.015625 -7.191406 4.09375 -8.039062 4.25 -8.875 L 7.625 -27.96875 L 3.484375 -27.96875 L 4.25 -32.40625 L 8.453125 -32.40625 L 9.875 -40.5625 L 15.3125 -40.5625 L 13.890625 -32.40625 L 22.296875 -32.40625 L 21.515625 -27.96875 L 13.0625 -27.96875 Z M 9.703125 -8.875 "/></g></g></g><g fill="#ffffff" fill-opacity="1"><g transform="translate(477.840444, 554.429748)"><g/></g></g><g fill="#ffffff" fill-opacity="1"><g transform="translate(495.458502, 554.429748)"><g><path d="M 15.609375 0.40625 C 11.785156 0.40625 8.679688 -0.503906 6.296875 -2.328125 C 3.910156 -4.160156 2.71875 -6.617188 2.71875 -9.703125 C 2.71875 -10.285156 2.738281 -10.71875 2.78125 -11 L 8.09375 -11 C 7.976562 -9.0625 8.570312 -7.40625 9.875 -6.03125 C 11.175781 -4.65625 13.164062 -3.96875 15.84375 -3.96875 C 18.519531 -3.96875 20.644531 -4.578125 22.21875 -5.796875 C 23.800781 -7.015625 24.59375 -8.726562 24.59375 -10.9375 C 24.59375 -12.28125 24.207031 -13.414062 23.4375 -14.34375 C 22.675781 -15.269531 21.734375 -16.035156 20.609375 -16.640625 C 19.484375 -17.253906 17.953125 -17.9375 16.015625 -18.6875 C 13.648438 -19.632812 11.75 -20.519531 10.3125 -21.34375 C 8.875 -22.164062 7.660156 -23.285156 6.671875 -24.703125 C 5.691406 -26.128906 5.242188 -27.925781 5.328125 -30.09375 C 5.328125 -32.382812 5.9375 -34.414062 7.15625 -36.1875 C 8.375 -37.957031 10.054688 -39.328125 12.203125 -40.296875 C 14.359375 -41.265625 16.816406 -41.75 19.578125 -41.75 C 22.253906 -41.75 24.566406 -41.289062 26.515625 -40.375 C 28.460938 -39.46875 29.929688 -38.207031 30.921875 -36.59375 C 31.910156 -34.976562 32.34375 -33.164062 32.21875 -31.15625 L 26.609375 -31.15625 C 26.679688 -32.1875 26.453125 -33.171875 25.921875 -34.109375 C 25.390625 -35.054688 24.5625 -35.828125 23.4375 -36.421875 C 22.320312 -37.015625 20.9375 -37.3125 19.28125 -37.3125 C 16.71875 -37.3125 14.65625 -36.707031 13.09375 -35.5 C 11.539062 -34.300781 10.765625 -32.65625 10.765625 -30.5625 C 10.765625 -29.34375 11.128906 -28.289062 11.859375 -27.40625 C 12.585938 -26.519531 13.503906 -25.769531 14.609375 -25.15625 C 15.710938 -24.539062 17.226562 -23.820312 19.15625 -23 C 21.476562 -22.007812 23.378906 -21.09375 24.859375 -20.25 C 26.335938 -19.40625 27.585938 -18.269531 28.609375 -16.84375 C 29.640625 -15.425781 30.15625 -13.65625 30.15625 -11.53125 C 30.15625 -9.238281 29.5625 -7.195312 28.375 -5.40625 C 27.195312 -3.613281 25.503906 -2.195312 23.296875 -1.15625 C 21.085938 -0.113281 18.523438 0.40625 15.609375 0.40625 Z M 15.609375 0.40625 "/></g></g></g><g fill="#ffffff" fill-opacity="1"><g transform="translate(529.866907, 554.429748)"><g><path d="M 36 -32.40625 L 30.265625 0 L 24.890625 0 L 25.71875 -4.734375 C 24.414062 -3.078125 22.757812 -1.796875 20.75 -0.890625 C 18.738281 0.015625 16.648438 0.46875 14.484375 0.46875 C 11.097656 0.46875 8.390625 -0.445312 6.359375 -2.28125 C 4.328125 -4.113281 3.3125 -6.742188 3.3125 -10.171875 C 3.3125 -11.035156 3.410156 -12.117188 3.609375 -13.421875 L 6.984375 -32.40625 L 12.296875 -32.40625 L 9.109375 -14.125 C 8.953125 -13.300781 8.875 -12.4375 8.875 -11.53125 C 8.875 -9.125 9.53125 -7.300781 10.84375 -6.0625 C 12.164062 -4.820312 14.007812 -4.203125 16.375 -4.203125 C 19.21875 -4.203125 21.632812 -5.085938 23.625 -6.859375 C 25.613281 -8.628906 26.882812 -11.210938 27.4375 -14.609375 L 27.4375 -14.421875 L 30.625 -32.40625 Z M 36 -32.40625 "/></g></g></g><g fill="#ffffff" fill-opacity="1"><g transform="translate(567.70433, 554.429748)"><g><path d="M 11.59375 -26.421875 C 13.007812 -28.273438 14.878906 -29.820312 17.203125 -31.0625 C 19.523438 -32.3125 22.066406 -32.9375 24.828125 -32.9375 C 27.347656 -32.9375 29.582031 -32.410156 31.53125 -31.359375 C 33.488281 -30.316406 35 -28.820312 36.0625 -26.875 C 37.125 -24.925781 37.65625 -22.628906 37.65625 -19.984375 C 37.65625 -18.835938 37.539062 -17.613281 37.3125 -16.3125 C 36.71875 -13.039062 35.523438 -10.125 33.734375 -7.5625 C 31.941406 -5 29.753906 -3.007812 27.171875 -1.59375 C 24.585938 -0.175781 21.859375 0.53125 18.984375 0.53125 C 16.222656 0.53125 13.90625 -0.0859375 12.03125 -1.328125 C 10.15625 -2.566406 8.804688 -4.113281 7.984375 -5.96875 L 4.25 15.375 L -1.125 15.375 L 7.265625 -32.40625 L 12.65625 -32.40625 Z M 31.8125 -16.3125 C 31.96875 -17.144531 32.046875 -18.050781 32.046875 -19.03125 C 32.046875 -21.914062 31.195312 -24.175781 29.5 -25.8125 C 27.8125 -27.445312 25.625 -28.265625 22.9375 -28.265625 C 20.96875 -28.265625 19.054688 -27.78125 17.203125 -26.8125 C 15.347656 -25.84375 13.757812 -24.441406 12.4375 -22.609375 C 11.125 -20.773438 10.25 -18.660156 9.8125 -16.265625 C 9.65625 -15.429688 9.578125 -14.523438 9.578125 -13.546875 C 9.578125 -10.660156 10.429688 -8.378906 12.140625 -6.703125 C 13.859375 -5.035156 16.039062 -4.203125 18.6875 -4.203125 C 20.695312 -4.203125 22.617188 -4.679688 24.453125 -5.640625 C 26.285156 -6.609375 27.859375 -8.007812 29.171875 -9.84375 C 30.492188 -11.675781 31.375 -13.832031 31.8125 -16.3125 Z M 31.8125 -16.3125 "/></g></g></g><g fill="#ffffff" fill-opacity="1"><g transform="translate(607.670119, 554.429748)"><g><path d="M 11.59375 -26.421875 C 13.007812 -28.273438 14.878906 -29.820312 17.203125 -31.0625 C 19.523438 -32.3125 22.066406 -32.9375 24.828125 -32.9375 C 27.347656 -32.9375 29.582031 -32.410156 31.53125 -31.359375 C 33.488281 -30.316406 35 -28.820312 36.0625 -26.875 C 37.125 -24.925781 37.65625 -22.628906 37.65625 -19.984375 C 37.65625 -18.835938 37.539062 -17.613281 37.3125 -16.3125 C 36.71875 -13.039062 35.523438 -10.125 33.734375 -7.5625 C 31.941406 -5 29.753906 -3.007812 27.171875 -1.59375 C 24.585938 -0.175781 21.859375 0.53125 18.984375 0.53125 C 16.222656 0.53125 13.90625 -0.0859375 12.03125 -1.328125 C 10.15625 -2.566406 8.804688 -4.113281 7.984375 -5.96875 L 4.25 15.375 L -1.125 15.375 L 7.265625 -32.40625 L 12.65625 -32.40625 Z M 31.8125 -16.3125 C 31.96875 -17.144531 32.046875 -18.050781 32.046875 -19.03125 C 32.046875 -21.914062 31.195312 -24.175781 29.5 -25.8125 C 27.8125 -27.445312 25.625 -28.265625 22.9375 -28.265625 C 20.96875 -28.265625 19.054688 -27.78125 17.203125 -26.8125 C 15.347656 -25.84375 13.757812 -24.441406 12.4375 -22.609375 C 11.125 -20.773438 10.25 -18.660156 9.8125 -16.265625 C 9.65625 -15.429688 9.578125 -14.523438 9.578125 -13.546875 C 9.578125 -10.660156 10.429688 -8.378906 12.140625 -6.703125 C 13.859375 -5.035156 16.039062 -4.203125 18.6875 -4.203125 C 20.695312 -4.203125 22.617188 -4.679688 24.453125 -5.640625 C 26.285156 -6.609375 27.859375 -8.007812 29.171875 -9.84375 C 30.492188 -11.675781 31.375 -13.832031 31.8125 -16.3125 Z M 31.8125 -16.3125 "/></g></g></g><g fill="#ffffff" fill-opacity="1"><g transform="translate(647.635885, 554.429748)"><g><path d="M 14.65625 -43.75 L 6.921875 0 L 1.53125 0 L 9.28125 -43.75 Z M 14.65625 -43.75 "/></g></g></g><g fill="#ffffff" fill-opacity="1"><g transform="translate(662.179627, 554.429748)"><g><path d="M 9.40625 -32.40625 L 14.90625 -6.265625 L 29.625 -32.40625 L 35.171875 -32.40625 L 7.265625 15.25 L 1.65625 15.25 L 10.8125 -0.359375 L 3.421875 -32.40625 Z M 9.40625 -32.40625 "/></g></g></g><g fill="#ffffff" fill-opacity="1"><g transform="translate(695.464751, 554.429748)"><g/></g></g><g fill="#ffffff" fill-opacity="1"><g transform="translate(713.082809, 554.429748)"><g><path d="M 3.1875 -20.640625 C 3.894531 -24.660156 5.441406 -28.273438 7.828125 -31.484375 C 10.210938 -34.691406 13.128906 -37.203125 16.578125 -39.015625 C 20.035156 -40.835938 23.65625 -41.75 27.4375 -41.75 C 31.925781 -41.75 35.660156 -40.660156 38.640625 -38.484375 C 41.617188 -36.316406 43.539062 -33.242188 44.40625 -29.265625 L 37.953125 -29.265625 C 37.242188 -31.671875 35.921875 -33.53125 33.984375 -34.84375 C 32.054688 -36.164062 29.597656 -36.828125 26.609375 -36.828125 C 23.734375 -36.828125 21.039062 -36.164062 18.53125 -34.84375 C 16.03125 -33.53125 13.910156 -31.640625 12.171875 -29.171875 C 10.441406 -26.710938 9.28125 -23.867188 8.6875 -20.640625 C 8.488281 -19.609375 8.390625 -18.425781 8.390625 -17.09375 C 8.390625 -13.226562 9.519531 -10.160156 11.78125 -7.890625 C 14.050781 -5.628906 17.082031 -4.5 20.875 -4.5 C 23.863281 -4.5 26.5625 -5.144531 28.96875 -6.4375 C 31.375 -7.738281 33.347656 -9.59375 34.890625 -12 L 41.328125 -12 C 39.078125 -8.0625 36.085938 -5.015625 32.359375 -2.859375 C 28.640625 -0.710938 24.535156 0.359375 20.046875 0.359375 C 16.691406 0.359375 13.710938 -0.335938 11.109375 -1.734375 C 8.515625 -3.140625 6.488281 -5.113281 5.03125 -7.65625 C 3.570312 -10.195312 2.84375 -13.125 2.84375 -16.4375 C 2.84375 -17.8125 2.957031 -19.210938 3.1875 -20.640625 Z M 3.1875 -20.640625 "/></g></g></g><g fill="#ffffff" fill-opacity="1"><g transform="translate(758.7242, 554.429748)"><g><path d="M 23.46875 -32.984375 C 26.707031 -32.984375 29.3125 -32.085938 31.28125 -30.296875 C 33.25 -28.503906 34.234375 -25.914062 34.234375 -22.53125 C 34.234375 -21.269531 34.132812 -20.125 33.9375 -19.09375 L 30.5625 0 L 25.25 0 L 28.5 -18.328125 C 28.65625 -19.160156 28.734375 -20.03125 28.734375 -20.9375 C 28.734375 -23.332031 28.070312 -25.160156 26.75 -26.421875 C 25.425781 -27.691406 23.582031 -28.328125 21.21875 -28.328125 C 18.382812 -28.328125 15.972656 -27.4375 13.984375 -25.65625 C 11.992188 -23.882812 10.703125 -21.304688 10.109375 -17.921875 L 10.109375 -18.03125 L 6.921875 0 L 1.53125 0 L 9.28125 -43.75 L 14.65625 -43.75 L 11.828125 -27.734375 C 13.160156 -29.390625 14.863281 -30.675781 16.9375 -31.59375 C 19.007812 -32.519531 21.1875 -32.984375 23.46875 -32.984375 Z M 23.46875 -32.984375 "/></g></g></g><g fill="#ffffff" fill-opacity="1"><g transform="translate(796.561624, 554.429748)"><g><path d="M 2.359375 -16.3125 C 2.953125 -19.625 4.144531 -22.53125 5.9375 -25.03125 C 7.726562 -27.539062 9.914062 -29.484375 12.5 -30.859375 C 15.082031 -32.242188 17.832031 -32.9375 20.75 -32.9375 C 23.59375 -32.9375 25.9375 -32.320312 27.78125 -31.09375 C 29.632812 -29.875 30.914062 -28.335938 31.625 -26.484375 L 32.703125 -32.40625 L 38.140625 -32.40625 L 32.40625 0 L 26.96875 0 L 28.078125 -6.03125 C 26.660156 -4.132812 24.789062 -2.566406 22.46875 -1.328125 C 20.144531 -0.0859375 17.582031 0.53125 14.78125 0.53125 C 12.257812 0.53125 10.03125 -0.0078125 8.09375 -1.09375 C 6.164062 -2.175781 4.671875 -3.722656 3.609375 -5.734375 C 2.546875 -7.742188 2.015625 -10.070312 2.015625 -12.71875 C 2.015625 -13.894531 2.128906 -15.09375 2.359375 -16.3125 Z M 29.859375 -16.265625 C 30.015625 -17.085938 30.09375 -17.972656 30.09375 -18.921875 C 30.09375 -21.796875 29.234375 -24.070312 27.515625 -25.75 C 25.804688 -27.425781 23.628906 -28.265625 20.984375 -28.265625 C 18.972656 -28.265625 17.050781 -27.789062 15.21875 -26.84375 C 13.382812 -25.894531 11.816406 -24.515625 10.515625 -22.703125 C 9.222656 -20.890625 8.359375 -18.757812 7.921875 -16.3125 C 7.765625 -15.488281 7.6875 -14.582031 7.6875 -13.59375 C 7.6875 -10.675781 8.53125 -8.378906 10.21875 -6.703125 C 11.914062 -5.035156 14.085938 -4.203125 16.734375 -4.203125 C 18.742188 -4.203125 20.664062 -4.679688 22.5 -5.640625 C 24.332031 -6.609375 25.90625 -8.007812 27.21875 -9.84375 C 28.539062 -11.675781 29.421875 -13.816406 29.859375 -16.265625 Z M 29.859375 -16.265625 "/></g></g></g><g fill="#ffffff" fill-opacity="1"><g transform="translate(836.52739, 554.429748)"><g><path d="M 10.9375 -37.65625 C 10.070312 -37.65625 9.351562 -37.941406 8.78125 -38.515625 C 8.207031 -39.085938 7.921875 -39.804688 7.921875 -40.671875 C 7.921875 -41.859375 8.351562 -42.875 9.21875 -43.71875 C 10.09375 -44.570312 11.097656 -45 12.234375 -45 C 13.140625 -45 13.867188 -44.722656 14.421875 -44.171875 C 14.972656 -43.617188 15.25 -42.890625 15.25 -41.984375 C 15.25 -40.796875 14.816406 -39.773438 13.953125 -38.921875 C 13.085938 -38.078125 12.082031 -37.65625 10.9375 -37.65625 Z M 12.65625 -32.40625 L 6.921875 0 L 1.53125 0 L 7.265625 -32.40625 Z M 12.65625 -32.40625 "/></g></g></g><g fill="#ffffff" fill-opacity="1"><g transform="translate(851.071132, 554.429748)"><g><path d="M 23.171875 -32.984375 C 26.523438 -32.984375 29.207031 -32.085938 31.21875 -30.296875 C 33.226562 -28.503906 34.234375 -25.894531 34.234375 -22.46875 C 34.234375 -21.207031 34.132812 -20.082031 33.9375 -19.09375 L 30.5625 0 L 25.25 0 L 28.5 -18.328125 C 28.65625 -19.160156 28.734375 -20.03125 28.734375 -20.9375 C 28.734375 -23.332031 28.070312 -25.160156 26.75 -26.421875 C 25.425781 -27.691406 23.582031 -28.328125 21.21875 -28.328125 C 18.382812 -28.328125 15.972656 -27.4375 13.984375 -25.65625 C 11.992188 -23.882812 10.703125 -21.304688 10.109375 -17.921875 L 10.109375 -18.03125 L 6.921875 0 L 1.53125 0 L 7.265625 -32.40625 L 12.65625 -32.40625 L 11.828125 -27.734375 C 13.160156 -29.421875 14.832031 -30.71875 16.84375 -31.625 C 18.851562 -32.53125 20.960938 -32.984375 23.171875 -32.984375 Z M 23.171875 -32.984375 "/></g></g></g><g fill="#ffffff" fill-opacity="1"><g transform="translate(888.908555, 554.429748)"><g/></g></g><g fill="#ffffff" fill-opacity="1"><g transform="translate(906.526613, 554.429748)"><g><path d="M 22.109375 -41.203125 C 26.210938 -41.203125 29.304688 -40.316406 31.390625 -38.546875 C 33.484375 -36.773438 34.53125 -34.410156 34.53125 -31.453125 C 34.53125 -30.984375 34.453125 -30.195312 34.296875 -29.09375 C 33.785156 -26.25 32.523438 -23.742188 30.515625 -21.578125 C 28.503906 -19.410156 25.800781 -17.972656 22.40625 -17.265625 L 29.6875 0 L 23.234375 0 L 16.375 -16.84375 L 9.9375 -16.84375 L 6.921875 0 L 1.53125 0 L 8.875 -41.203125 Z M 28.734375 -29.09375 C 28.847656 -29.800781 28.90625 -30.453125 28.90625 -31.046875 C 28.90625 -32.929688 28.285156 -34.382812 27.046875 -35.40625 C 25.804688 -36.4375 23.90625 -36.953125 21.34375 -36.953125 L 13.484375 -36.953125 L 10.703125 -21.171875 L 18.625 -21.171875 C 21.539062 -21.171875 23.84375 -21.890625 25.53125 -23.328125 C 27.226562 -24.765625 28.296875 -26.6875 28.734375 -29.09375 Z M 28.734375 -29.09375 "/></g></g></g><g fill="#ffffff" fill-opacity="1"><g transform="translate(942.472176, 554.429748)"><g><path d="M 21.34375 -32.9375 C 24.0625 -32.9375 26.414062 -32.410156 28.40625 -31.359375 C 30.394531 -30.316406 31.910156 -28.859375 32.953125 -26.984375 C 34.003906 -25.117188 34.53125 -22.984375 34.53125 -20.578125 C 34.53125 -19.742188 34.429688 -18.738281 34.234375 -17.5625 C 34.078125 -16.53125 33.820312 -15.46875 33.46875 -14.375 L 7.5625 -14.375 C 7.488281 -13.582031 7.453125 -13.007812 7.453125 -12.65625 C 7.453125 -9.9375 8.269531 -7.816406 9.90625 -6.296875 C 11.539062 -4.773438 13.675781 -4.015625 16.3125 -4.015625 C 18.644531 -4.015625 20.6875 -4.554688 22.4375 -5.640625 C 24.1875 -6.722656 25.515625 -8.171875 26.421875 -9.984375 L 32.21875 -9.984375 C 30.800781 -6.878906 28.625 -4.347656 25.6875 -2.390625 C 22.75 -0.441406 19.347656 0.53125 15.484375 0.53125 C 11.429688 0.53125 8.171875 -0.640625 5.703125 -2.984375 C 3.242188 -5.328125 2.015625 -8.53125 2.015625 -12.59375 C 2.015625 -13.738281 2.128906 -14.960938 2.359375 -16.265625 C 2.953125 -19.609375 4.15625 -22.539062 5.96875 -25.0625 C 7.78125 -27.59375 10.015625 -29.535156 12.671875 -30.890625 C 15.335938 -32.253906 18.226562 -32.9375 21.34375 -32.9375 Z M 28.796875 -18.265625 C 28.910156 -19.054688 28.96875 -19.785156 28.96875 -20.453125 C 28.96875 -22.972656 28.171875 -24.921875 26.578125 -26.296875 C 24.984375 -27.679688 22.90625 -28.375 20.34375 -28.375 C 17.582031 -28.375 15.078125 -27.476562 12.828125 -25.6875 C 10.578125 -23.894531 9.0625 -21.421875 8.28125 -18.265625 Z M 28.796875 -18.265625 "/></g></g></g><g fill="#ffffff" fill-opacity="1"><g transform="translate(979.127187, 554.429748)"><g><path d="M 14.484375 -5.078125 L 29.390625 -32.40625 L 35.171875 -32.40625 L 16.734375 0 L 10.40625 0 L 3.421875 -32.40625 L 9.21875 -32.40625 Z M 14.484375 -5.078125 "/></g></g></g><g fill="#ffffff" fill-opacity="1"><g transform="translate(1012.294048, 554.429748)"><g><path d="M 15.78125 0.53125 C 13.0625 0.53125 10.664062 -0.03125 8.59375 -1.15625 C 6.53125 -2.28125 4.925781 -3.851562 3.78125 -5.875 C 2.632812 -7.90625 2.0625 -10.265625 2.0625 -12.953125 C 2.0625 -16.617188 2.910156 -19.976562 4.609375 -23.03125 C 6.304688 -26.082031 8.640625 -28.492188 11.609375 -30.265625 C 14.585938 -32.046875 17.910156 -32.9375 21.578125 -32.9375 C 24.296875 -32.9375 26.707031 -32.375 28.8125 -31.25 C 30.925781 -30.125 32.5625 -28.546875 33.71875 -26.515625 C 34.882812 -24.484375 35.46875 -22.109375 35.46875 -19.390625 C 35.46875 -15.722656 34.597656 -12.375 32.859375 -9.34375 C 31.128906 -6.3125 28.765625 -3.90625 25.765625 -2.125 C 22.773438 -0.351562 19.445312 0.53125 15.78125 0.53125 Z M 16.4375 -4.015625 C 19 -4.015625 21.300781 -4.710938 23.34375 -6.109375 C 25.394531 -7.515625 27.003906 -9.367188 28.171875 -11.671875 C 29.335938 -13.984375 29.921875 -16.457031 29.921875 -19.09375 C 29.921875 -22.09375 29.050781 -24.390625 27.3125 -25.984375 C 25.582031 -27.578125 23.414062 -28.375 20.8125 -28.375 C 18.25 -28.375 15.960938 -27.675781 13.953125 -26.28125 C 11.941406 -24.882812 10.382812 -23.019531 9.28125 -20.6875 C 8.175781 -18.363281 7.625 -15.863281 7.625 -13.1875 C 7.625 -10.269531 8.453125 -8.007812 10.109375 -6.40625 C 11.765625 -4.8125 13.875 -4.015625 16.4375 -4.015625 Z M 16.4375 -4.015625 "/></g></g></g><g fill="#ffffff" fill-opacity="1"><g transform="translate(1050.13143, 554.429748)"><g><path d="M 14.65625 -43.75 L 6.921875 0 L 1.53125 0 L 9.28125 -43.75 Z M 14.65625 -43.75 "/></g></g></g><g fill="#ffffff" fill-opacity="1"><g transform="translate(1064.675172, 554.429748)"><g><path d="M 36 -32.40625 L 30.265625 0 L 24.890625 0 L 25.71875 -4.734375 C 24.414062 -3.078125 22.757812 -1.796875 20.75 -0.890625 C 18.738281 0.015625 16.648438 0.46875 14.484375 0.46875 C 11.097656 0.46875 8.390625 -0.445312 6.359375 -2.28125 C 4.328125 -4.113281 3.3125 -6.742188 3.3125 -10.171875 C 3.3125 -11.035156 3.410156 -12.117188 3.609375 -13.421875 L 6.984375 -32.40625 L 12.296875 -32.40625 L 9.109375 -14.125 C 8.953125 -13.300781 8.875 -12.4375 8.875 -11.53125 C 8.875 -9.125 9.53125 -7.300781 10.84375 -6.0625 C 12.164062 -4.820312 14.007812 -4.203125 16.375 -4.203125 C 19.21875 -4.203125 21.632812 -5.085938 23.625 -6.859375 C 25.613281 -8.628906 26.882812 -11.210938 27.4375 -14.609375 L 27.4375 -14.421875 L 30.625 -32.40625 Z M 36 -32.40625 "/></g></g></g><g fill="#ffffff" fill-opacity="1"><g transform="translate(1102.512553, 554.429748)"><g><path d="M 9.703125 -8.875 C 9.578125 -8.28125 9.515625 -7.765625 9.515625 -7.328125 C 9.515625 -6.347656 9.820312 -5.640625 10.4375 -5.203125 C 11.050781 -4.765625 12.046875 -4.546875 13.421875 -4.546875 L 17.375 -4.546875 L 16.5625 0 L 11.703125 0 C 9.140625 0 7.21875 -0.488281 5.9375 -1.46875 C 4.65625 -2.457031 4.015625 -4.078125 4.015625 -6.328125 C 4.015625 -7.191406 4.09375 -8.039062 4.25 -8.875 L 7.625 -27.96875 L 3.484375 -27.96875 L 4.25 -32.40625 L 8.453125 -32.40625 L 9.875 -40.5625 L 15.3125 -40.5625 L 13.890625 -32.40625 L 22.296875 -32.40625 L 21.515625 -27.96875 L 13.0625 -27.96875 Z M 9.703125 -8.875 "/></g></g></g><g fill="#ffffff" fill-opacity="1"><g transform="translate(1124.032595, 554.429748)"><g><path d="M 10.9375 -37.65625 C 10.070312 -37.65625 9.351562 -37.941406 8.78125 -38.515625 C 8.207031 -39.085938 7.921875 -39.804688 7.921875 -40.671875 C 7.921875 -41.859375 8.351562 -42.875 9.21875 -43.71875 C 10.09375 -44.570312 11.097656 -45 12.234375 -45 C 13.140625 -45 13.867188 -44.722656 14.421875 -44.171875 C 14.972656 -43.617188 15.25 -42.890625 15.25 -41.984375 C 15.25 -40.796875 14.816406 -39.773438 13.953125 -38.921875 C 13.085938 -38.078125 12.082031 -37.65625 10.9375 -37.65625 Z M 12.65625 -32.40625 L 6.921875 0 L 1.53125 0 L 7.265625 -32.40625 Z M 12.65625 -32.40625 "/></g></g></g><g fill="#ffffff" fill-opacity="1"><g transform="translate(1138.576337, 554.429748)"><g><path d="M 15.78125 0.53125 C 13.0625 0.53125 10.664062 -0.03125 8.59375 -1.15625 C 6.53125 -2.28125 4.925781 -3.851562 3.78125 -5.875 C 2.632812 -7.90625 2.0625 -10.265625 2.0625 -12.953125 C 2.0625 -16.617188 2.910156 -19.976562 4.609375 -23.03125 C 6.304688 -26.082031 8.640625 -28.492188 11.609375 -30.265625 C 14.585938 -32.046875 17.910156 -32.9375 21.578125 -32.9375 C 24.296875 -32.9375 26.707031 -32.375 28.8125 -31.25 C 30.925781 -30.125 32.5625 -28.546875 33.71875 -26.515625 C 34.882812 -24.484375 35.46875 -22.109375 35.46875 -19.390625 C 35.46875 -15.722656 34.597656 -12.375 32.859375 -9.34375 C 31.128906 -6.3125 28.765625 -3.90625 25.765625 -2.125 C 22.773438 -0.351562 19.445312 0.53125 15.78125 0.53125 Z M 16.4375 -4.015625 C 19 -4.015625 21.300781 -4.710938 23.34375 -6.109375 C 25.394531 -7.515625 27.003906 -9.367188 28.171875 -11.671875 C 29.335938 -13.984375 29.921875 -16.457031 29.921875 -19.09375 C 29.921875 -22.09375 29.050781 -24.390625 27.3125 -25.984375 C 25.582031 -27.578125 23.414062 -28.375 20.8125 -28.375 C 18.25 -28.375 15.960938 -27.675781 13.953125 -26.28125 C 11.941406 -24.882812 10.382812 -23.019531 9.28125 -20.6875 C 8.175781 -18.363281 7.625 -15.863281 7.625 -13.1875 C 7.625 -10.269531 8.453125 -8.007812 10.109375 -6.40625 C 11.765625 -4.8125 13.875 -4.015625 16.4375 -4.015625 Z M 16.4375 -4.015625 "/></g></g></g><g fill="#ffffff" fill-opacity="1"><g transform="translate(1176.413719, 554.429748)"><g><path d="M 23.171875 -32.984375 C 26.523438 -32.984375 29.207031 -32.085938 31.21875 -30.296875 C 33.226562 -28.503906 34.234375 -25.894531 34.234375 -22.46875 C 34.234375 -21.207031 34.132812 -20.082031 33.9375 -19.09375 L 30.5625 0 L 25.25 0 L 28.5 -18.328125 C 28.65625 -19.160156 28.734375 -20.03125 28.734375 -20.9375 C 28.734375 -23.332031 28.070312 -25.160156 26.75 -26.421875 C 25.425781 -27.691406 23.582031 -28.328125 21.21875 -28.328125 C 18.382812 -28.328125 15.972656 -27.4375 13.984375 -25.65625 C 11.992188 -23.882812 10.703125 -21.304688 10.109375 -17.921875 L 10.109375 -18.03125 L 6.921875 0 L 1.53125 0 L 7.265625 -32.40625 L 12.65625 -32.40625 L 11.828125 -27.734375 C 13.160156 -29.421875 14.832031 -30.71875 16.84375 -31.625 C 18.851562 -32.53125 20.960938 -32.984375 23.171875 -32.984375 Z M 23.171875 -32.984375 "/></g></g></g></svg>